<svg width="189" height="78" viewBox="0 0 189 78" fill="none" xmlns="http://www.w3.org/2000/svg">
<path d="M40.0126 57.5164C32.6934 57.5164 27.0007 61.9101 27.0007 67.5592C27.0007 73.2082 32.6934 77.602 40.0126 77.602C47.3318 77.602 53.0246 73.2082 53.0246 67.5592C53.0246 61.9101 47.3318 57.5164 40.0126 57.5164ZM117.271 0.397949H110.765V12.6376H135.162L117.271 0.397949ZM0.976866 69.4422H17.2418C17.2418 69.4422 18.055 50.6119 41.6391 50.6119C59.1239 50.6119 61.9702 69.4422 61.9702 69.4422H102.633V0.397949H0.163696L0.976866 69.4422ZM154.68 57.5164C147.361 57.5164 141.668 61.9101 141.668 67.5592C141.668 73.2082 147.361 77.602 154.68 77.602C161.999 77.602 167.692 73.2082 167.692 67.5592C167.692 61.9101 161.593 57.5164 154.68 57.5164ZM139.229 16.0898H110.765V69.4422H135.162C135.162 69.4422 131.909 53.7503 155.493 53.7503C173.385 53.7503 172.978 69.4422 172.978 69.4422H188.023L188.836 45.9044L139.229 16.0898ZM135.162 56.8887H118.897V50.6119H135.162V56.8887ZM133.536 45.5905L117.271 38.0584V20.4835H133.536L175.825 45.5905H133.536Z" fill="white" fill-opacity="0.4"/>
</svg>
